<svg xmlns="http://www.w3.org/2000/svg">
	<defs>
		<style>
		.img { display: none }
		.img:target { display: inline }
		</style>
	</defs>

  <svg viewBox="0 0 25 25" fill="none" xmlns="http://www.w3.org/2000/svg">
    <g id="star" class="img">
      <path d="M12.4147 0.325809C12.4189 0.290328 12.4318 0.275967 12.441 0.268484C12.4535 0.258442 12.4741 0.25 12.5 0.25C12.5259 0.25 12.5465 0.258442 12.559 0.268484C12.5682 0.275967 12.5811 0.290328 12.5853 0.325809L12.9786 3.64034C13.5001 8.03505 16.965 11.4999 21.3596 12.0214L24.6742 12.4147C24.6742 12.4147 24.6742 12.4147 24.6742 12.4147C24.7097 12.4189 24.724 12.4318 24.7315 12.4411C24.7416 12.4535 24.75 12.4741 24.75 12.5C24.75 12.5259 24.7416 12.5465 24.7315 12.5589C24.724 12.5682 24.7097 12.5811 24.6742 12.5853C24.6742 12.5853 24.6742 12.5853 24.6742 12.5853L21.3596 12.9786C16.965 13.5001 13.5001 16.965 12.9786 21.3596L12.5853 24.6742C12.5853 24.6742 12.5853 24.6742 12.5853 24.6742C12.5811 24.7097 12.5682 24.724 12.5589 24.7315C12.5465 24.7416 12.5259 24.75 12.5 24.75C12.4741 24.75 12.4535 24.7416 12.4411 24.7315C12.4318 24.724 12.4189 24.7097 12.4147 24.6742C12.4147 24.6742 12.4147 24.6742 12.4147 24.6742L12.0214 21.3596C11.4999 16.965 8.03505 13.5001 3.64034 12.9786L0.325809 12.5853C0.290328 12.5811 0.275967 12.5682 0.268484 12.559C0.258442 12.5465 0.25 12.5259 0.25 12.5C0.25 12.4741 0.258442 12.4535 0.268484 12.441C0.275967 12.4318 0.290328 12.4189 0.325809 12.4147L3.64034 12.0214C8.03505 11.4999 11.4999 8.03505 12.0214 3.64034L12.4147 0.325809Z" stroke="black" stroke-width="0.5"/>
    </g>
  </svg>

  <svg viewBox="0 0 25 25" fill="none" xmlns="http://www.w3.org/2000/svg">
    <g id="star-white" class="img">
      <path d="M12.4147 0.32587C12.4189 0.290389 12.4318 0.276028 12.441 0.268545C12.4535 0.258503 12.4741 0.250061 12.5 0.250061C12.5259 0.250061 12.5465 0.258503 12.559 0.268545C12.5682 0.276028 12.5811 0.290389 12.5853 0.32587L12.9786 3.6404C13.5001 8.03511 16.965 11.5 21.3596 12.0215L24.6742 12.4147C24.6742 12.4147 24.6742 12.4147 24.6742 12.4147C24.7097 12.419 24.724 12.4319 24.7315 12.4411C24.7416 12.4535 24.75 12.4741 24.75 12.5001C24.75 12.526 24.7416 12.5466 24.7315 12.559C24.724 12.5683 24.7097 12.5812 24.6742 12.5854C24.6742 12.5854 24.6742 12.5854 24.6742 12.5854L21.3596 12.9787C16.965 13.5001 13.5001 16.965 12.9786 21.3597L12.5853 24.6742C12.5853 24.6742 12.5853 24.6742 12.5853 24.6742C12.5811 24.7097 12.5682 24.7241 12.5589 24.7316C12.5465 24.7416 12.5259 24.7501 12.5 24.7501C12.4741 24.7501 12.4535 24.7416 12.4411 24.7316C12.4318 24.7241 12.4189 24.7097 12.4147 24.6742C12.4147 24.6742 12.4147 24.6742 12.4147 24.6742L12.0214 21.3597C11.4999 16.965 8.03505 13.5001 3.64034 12.9787L0.325809 12.5854C0.290328 12.5812 0.275967 12.5683 0.268484 12.559C0.258442 12.5466 0.25 12.526 0.25 12.5001C0.25 12.4741 0.258442 12.4535 0.268484 12.4411C0.275967 12.4319 0.290328 12.4189 0.325809 12.4147L3.64034 12.0215C8.03505 11.5 11.4999 8.03511 12.0214 3.6404L12.4147 0.32587Z" stroke="white" stroke-width="0.5"/>
    </g>
  </svg>

  <svg viewBox="0 0 8 14" fill="none" xmlns="http://www.w3.org/2000/svg">
    <g id="slider-arrow" class="img">
      <path d="M7 13L1 7L7 1" stroke="black" stroke-linecap="square" stroke-linejoin="round"/>
    </g>
  </svg>

  <svg viewBox="0 0 8 14" fill="none" xmlns="http://www.w3.org/2000/svg">
    <g id="slider-arrow-hover" class="img">
      <path d="M7 13L1 7L7 1" stroke="white" stroke-linecap="square" stroke-linejoin="round"/>
    </g>
  </svg>

  <svg viewBox="0 0 58 66" fill="none" xmlns="http://www.w3.org/2000/svg">
    <g id="video-arrow" class="img">
      <path d="M0.836824 0.656317L57.3118 33.2622L0.836824 65.8681L0.836824 0.656317Z" fill="white"/>
    </g>
  </svg>

  <svg viewBox="0 0 45 45" fill="none" xmlns="http://www.w3.org/2000/svg">
    <g id="popup-line" class="img">
      <path d="M43.3223 44.6113C43.3193 29.1374 34.8437 -1.12768 0.964423 1.60287" stroke="white" stroke-width="0.7" stroke-dasharray="1 4"/>
    </g>
  </svg>


  




</svg>