<svg width="111" height="16" viewBox="0 0 111 16" fill="none" xmlns="http://www.w3.org/2000/svg">
<path d="M14.3945 2.02148C13.9941 1.75781 13.4766 1.52344 12.8418 1.31836C11.7578 0.966797 10.0781 0.605469 7.65625 0.605469C2.55859 0.605469 0.957031 2.63672 0.957031 4.78516C0.957031 7.1582 2.58789 8.37891 7.50977 9.39453C10.5859 10.0195 11.5332 10.1758 11.5332 11.1133C11.5332 12.041 10.3125 12.5684 7.65625 12.5684C5.92773 12.5684 4.51172 12.2852 3.52539 12.002C2.94922 11.8359 2.43164 11.6406 1.98242 11.4258L0.390625 13.7305C0.869141 14.043 1.46484 14.3164 2.16797 14.5605C3.36914 14.9805 5.17578 15.3906 7.65625 15.3906C12.168 15.3906 14.8242 13.9258 14.8242 11.1133C14.8242 8.38867 12.6562 7.43164 8.125 6.54297C5.47852 6.02539 4.24805 5.73242 4.24805 4.78516C4.24805 3.93555 5.26367 3.42773 7.65625 3.42773C9.26758 3.42773 10.5273 3.65234 11.4258 3.87695C11.9434 4.00391 12.4023 4.16016 12.8027 4.32617L14.3945 2.02148Z" fill="black"/>
<path d="M29.6973 15H33.1641L25.5762 0.996094H22.9004L15.3125 15H18.7793L20.2637 12.2559H28.2129L29.6973 15ZM24.2383 4.90234L26.7383 9.53125H21.7383L24.2383 4.90234Z" fill="black"/>
<path d="M40.7617 15.3906C46.3086 15.3906 48.2617 12.7441 48.2617 8.64258V0.996094H45.0098V8.64258C45.0098 11.1719 44.0918 12.5684 40.7617 12.5684C37.4316 12.5684 36.5137 11.1719 36.5137 8.64258V0.996094H33.2617V8.64258C33.2617 12.7441 35.2148 15.3906 40.7617 15.3906Z" fill="black"/>
<path d="M53.4668 0.996094H50.2148V15H63.2129V12.1777H53.4668V0.996094Z" fill="black"/>
<path d="M68.0371 6.5625V3.81836H78.418V0.996094H64.7852V15H78.5156V12.1777H68.0371V9.28711H77.998V6.5625H68.0371Z" fill="black"/>
<path d="M83.5254 15V10.1758H88.6914L91.4941 15H95.1172L92.0703 9.75586C93.9355 9.13086 94.9805 7.83203 94.9805 5.73242C94.9805 3.26172 93.2715 0.996094 89.4727 0.996094H80.2734V15H83.5254ZM89.4727 3.81836C91.1621 3.81836 91.6895 4.7168 91.6895 5.73242C91.6895 6.74805 91.1621 7.64648 89.4727 7.64648H83.5254V3.81836H89.4727Z" fill="black"/>
<path d="M110.098 2.02148C109.697 1.75781 109.18 1.52344 108.545 1.31836C107.461 0.966797 105.781 0.605469 103.359 0.605469C98.2617 0.605469 96.6602 2.63672 96.6602 4.78516C96.6602 7.1582 98.291 8.37891 103.213 9.39453C106.289 10.0195 107.236 10.1758 107.236 11.1133C107.236 12.041 106.016 12.5684 103.359 12.5684C101.631 12.5684 100.215 12.2852 99.2285 12.002C98.6523 11.8359 98.1348 11.6406 97.6855 11.4258L96.0938 13.7305C96.5723 14.043 97.168 14.3164 97.8711 14.5605C99.0723 14.9805 100.879 15.3906 103.359 15.3906C107.871 15.3906 110.527 13.9258 110.527 11.1133C110.527 8.38867 108.359 7.43164 103.828 6.54297C101.182 6.02539 99.9512 5.73242 99.9512 4.78516C99.9512 3.93555 100.967 3.42773 103.359 3.42773C104.971 3.42773 106.23 3.65234 107.129 3.87695C107.646 4.00391 108.105 4.16016 108.506 4.32617L110.098 2.02148Z" fill="black"/>
</svg>
