<svg width="367" height="54" viewBox="0 0 367 54" fill="none" xmlns="http://www.w3.org/2000/svg">
<path d="M49.2764 6.57526L50.0992 7.14356L50.6802 6.30236L49.8264 5.74009L49.2764 6.57526ZM43.8418 4.11432L43.5333 5.06554L43.5344 5.06589L43.8418 4.11432ZM25.1797 32.3809L24.9776 33.3603L24.9806 33.3609L25.1797 32.3809ZM11.2344 41.5069L10.9575 42.4678L10.9584 42.4681L11.2344 41.5069ZM5.83398 39.4903L6.26544 38.5882L5.49593 38.2201L5.01117 38.922L5.83398 39.4903ZM0.262695 47.5567L-0.560123 46.9884L-1.14335 47.8328L-0.284092 48.394L0.262695 47.5567ZM6.4834 50.462L6.81341 49.518L6.81141 49.5173L6.4834 50.462ZM27.333 22.4005L27.5255 21.4191L27.5249 21.419L27.333 22.4005ZM38.8857 13.0694L38.6432 14.0395L38.6475 14.0406L38.8857 13.0694ZM43.7051 14.6417L43.3221 15.5654L44.0686 15.8749L44.5279 15.21L43.7051 14.6417ZM49.8264 5.74009C48.3268 4.75259 46.4259 3.89828 44.1492 3.16275L43.5344 5.06589C45.7011 5.76591 47.4232 6.55222 48.7264 7.41043L49.8264 5.74009ZM44.1503 3.1631C40.2547 1.89965 34.2715 0.619202 25.6924 0.619202V2.6192C34.0664 2.6192 39.841 3.86805 43.5333 5.06554L44.1503 3.1631ZM25.6924 0.619202C16.6613 0.619202 10.5525 2.41488 6.67898 5.31315C2.76291 8.24329 1.24512 12.2156 1.24512 16.2481H3.24512C3.24512 12.7611 4.53006 9.41894 7.87717 6.91451C11.2669 4.37821 16.8816 2.6192 25.6924 2.6192V0.619202ZM1.24512 16.2481C1.24512 18.4405 1.62236 20.4243 2.51003 22.2167C3.39909 24.012 4.77089 25.5561 6.67221 26.9106C10.4349 29.5911 16.3479 31.5796 24.9776 33.3603L25.3818 31.4016C16.7849 29.6276 11.2307 27.7024 7.83267 25.2817C6.15367 24.0855 5.02181 22.782 4.30229 21.3291C3.58138 19.8734 3.24512 18.2085 3.24512 16.2481H1.24512ZM24.9806 33.3609C30.4183 34.4657 33.8274 35.1304 35.9052 35.9142C36.9323 36.3016 37.5034 36.6737 37.8232 37.0389C38.1101 37.3664 38.2617 37.7644 38.2617 38.3965H40.2617C40.2617 37.388 39.9989 36.4873 39.3277 35.721C38.6894 34.9924 37.7587 34.4758 36.6111 34.0429C34.3396 33.1861 30.7077 32.4836 25.3788 31.4009L24.9806 33.3609ZM38.2617 38.3965C38.2617 38.9669 38.0819 39.4588 37.6933 39.9071C37.288 40.3747 36.6215 40.8317 35.6009 41.2286C33.5457 42.0278 30.3026 42.4893 25.6924 42.4893V44.4893C30.379 44.4893 33.9206 44.028 36.3258 43.0926C37.5355 42.6222 38.5182 42.009 39.2045 41.2172C39.9074 40.4062 40.2617 39.4497 40.2617 38.3965H38.2617ZM25.6924 42.4893C19.7516 42.4893 14.8892 41.5159 11.5104 40.5457L10.9584 42.4681C14.4838 43.4803 19.5335 44.4893 25.6924 44.4893V42.4893ZM11.5112 40.546C9.54099 39.9783 7.78196 39.3134 6.26544 38.5882L5.40253 40.3924C7.03054 41.171 8.89456 41.8734 10.9575 42.4678L11.5112 40.546ZM5.01117 38.922L-0.560123 46.9884L1.08551 48.125L6.6568 40.0586L5.01117 38.922ZM-0.284092 48.394C1.48066 49.5465 3.64647 50.5355 6.15539 51.4067L6.81141 49.5173C4.39845 48.6795 2.39434 47.7544 0.809483 46.7194L-0.284092 48.394ZM6.15339 51.406C10.4632 52.9127 16.898 54.3672 25.6924 54.3672V52.3672C17.1234 52.3672 10.9118 50.9508 6.81341 49.518L6.15339 51.406ZM25.6924 54.3672C33.6697 54.3672 40.1459 53.0766 44.6626 50.4366C49.2415 47.7603 51.7803 43.7029 51.7803 38.3965H49.7803C49.7803 42.934 47.6706 46.3619 43.6533 48.71C39.5739 51.0944 33.5061 52.3672 25.6924 52.3672V54.3672ZM51.7803 38.3965C51.7803 35.8761 51.2776 33.7025 50.2182 31.8209C49.1595 29.9404 47.5817 28.4173 45.5329 27.1402C41.4794 24.6134 35.4479 22.9729 27.5255 21.4191L27.1406 23.3818C35.0775 24.9384 40.7697 26.5278 44.4749 28.8375C46.3055 29.9786 47.6159 31.2753 48.4755 32.8021C49.3345 34.3278 49.7803 36.1489 49.7803 38.3965H51.7803ZM27.5249 21.419C22.8606 20.5068 19.5747 19.8144 17.4474 18.9603C16.3913 18.5362 15.7185 18.1085 15.3141 17.6729C14.9402 17.2702 14.7637 16.8287 14.7637 16.2481H12.7637C12.7637 17.3253 13.1255 18.2552 13.8485 19.0338C14.541 19.7796 15.5239 20.3431 16.7022 20.8162C19.044 21.7565 22.5427 22.4826 27.1411 23.3819L27.5249 21.419ZM14.7637 16.2481C14.7637 15.7205 14.9155 15.2733 15.2332 14.8729C15.563 14.4573 16.1117 14.0435 16.9763 13.679C18.7253 12.9415 21.5462 12.4971 25.6924 12.4971V10.4971C21.4645 10.4971 18.3211 10.9414 16.1993 11.8361C15.1284 12.2876 14.265 12.8756 13.6666 13.6296C13.0562 14.3988 12.7637 15.2889 12.7637 16.2481H14.7637ZM25.6924 12.4971C31.2365 12.4971 35.5634 13.2696 38.6432 14.0395L39.1283 12.0993C35.919 11.2969 31.4275 10.4971 25.6924 10.4971V12.4971ZM38.6475 14.0406C40.4074 14.4723 41.9655 15.0029 43.3221 15.5654L44.0881 13.7179C42.6419 13.1183 40.9871 12.5552 39.124 12.0982L38.6475 14.0406ZM44.5279 15.21L50.0992 7.14356L48.4535 6.00695L42.8823 14.0734L44.5279 15.21ZM53.5146 25.4083H52.5146V26.4083H53.5146V25.4083ZM62.5381 25.4083H63.5381V24.4083H62.5381V25.4083ZM86.6006 51.9317L86.3218 50.9714L86.3141 50.9736L86.3065 50.9759L86.6006 51.9317ZM89.1982 50.8038L89.7432 51.6422L90.4431 51.1873L90.1206 50.4174L89.1982 50.8038ZM86.0195 43.2159L86.9419 42.8295L86.5494 41.8926L85.6187 42.2997L86.0195 43.2159ZM84.208 43.8311L83.9535 42.864L83.9449 42.8664L84.208 43.8311ZM73.749 25.4083V24.4083H72.749V25.4083H73.749ZM87.7627 25.4083V26.4083H88.7627V25.4083H87.7627ZM87.7627 16.795H88.7627V15.795H87.7627V16.795ZM73.749 16.795H72.749V17.795H73.749V16.795ZM73.749 6.57526H74.749V5.57526H73.749V6.57526ZM62.5381 6.57526V5.57526H61.5381V6.57526H62.5381ZM62.5381 16.795V17.795H63.5381V16.795H62.5381ZM53.5146 16.795V15.795H52.5146V16.795H53.5146ZM53.5146 26.4083H62.5381V24.4083H53.5146V26.4083ZM61.5381 25.4083V36.6876H63.5381V25.4083H61.5381ZM61.5381 36.6876C61.5381 41.9229 62.3396 46.3138 64.9312 49.3851C67.5564 52.4963 71.8145 54.0255 78.1582 54.0255V52.0255C72.0947 52.0255 68.5427 50.5639 66.4597 48.0953C64.343 45.5868 63.5381 41.8086 63.5381 36.6876H61.5381ZM78.1582 54.0255C82.1838 54.0255 85.0176 53.465 86.8947 52.8875L86.3065 50.9759C84.6289 51.4921 81.994 52.0255 78.1582 52.0255V54.0255ZM86.8794 52.892C88.0076 52.5645 88.9577 52.1528 89.7432 51.6422L88.6533 49.9653C88.0716 50.3434 87.3127 50.6837 86.3218 50.9714L86.8794 52.892ZM90.1206 50.4174L86.9419 42.8295L85.0972 43.6023L88.2759 51.1902L90.1206 50.4174ZM85.6187 42.2997C85.1295 42.5138 84.5651 42.7031 83.9535 42.864L84.4625 44.7982C85.1498 44.6173 85.8158 44.3965 86.4203 44.132L85.6187 42.2997ZM83.9449 42.8664C82.9012 43.151 81.349 43.4122 79.5254 43.4122V45.4122C81.5299 45.4122 83.259 45.1265 84.4711 44.7959L83.9449 42.8664ZM79.5254 43.4122C77.5266 43.4122 76.4809 43.0016 75.8496 42.1912C75.1546 41.2991 74.749 39.6752 74.749 36.6876H72.749C72.749 39.7156 73.1296 41.954 74.2718 43.4203C75.4776 44.9682 77.3201 45.4122 79.5254 45.4122V43.4122ZM74.749 36.6876V25.4083H72.749V36.6876H74.749ZM73.749 26.4083H87.7627V24.4083H73.749V26.4083ZM88.7627 25.4083V16.795H86.7627V25.4083H88.7627ZM87.7627 15.795H73.749V17.795H87.7627V15.795ZM74.749 16.795V6.57526H72.749V16.795H74.749ZM73.749 5.57526H62.5381V7.57526H73.749V5.57526ZM61.5381 6.57526V16.795H63.5381V6.57526H61.5381ZM62.5381 15.795H53.5146V17.795H62.5381V15.795ZM52.5146 16.795V25.4083H54.5146V16.795H52.5146ZM124.232 47.3858H125.232V43.8288L123.379 46.8647L124.232 47.3858ZM124.232 52.0001H123.232V53.0001H124.232V52.0001ZM135.478 52.0001V53.0001H136.478V52.0001H135.478ZM101.093 17.5128L100.85 16.5426L100.842 16.5446L101.093 17.5128ZM95.9658 19.2559L95.5536 18.3448L94.572 18.7889L95.0879 19.7348L95.9658 19.2559ZM99.8623 26.3995L98.9844 26.8783L99.3916 27.6248L100.194 27.3429L99.8623 26.3995ZM104.135 25.2374L103.927 24.2592L103.927 24.2593L104.135 25.2374ZM124.267 29.4415L124.193 30.4388L125.267 30.5176V29.4415H124.267ZM124.232 35.6622H125.232V34.6931L124.264 34.6627L124.232 35.6622ZM91.6162 41.3702C91.6162 45.9292 93.7928 49.1104 97.3025 51.0934C100.741 53.0363 105.428 53.8204 110.561 53.8204V51.8204C105.576 51.8204 101.29 51.0493 98.2863 49.3521C95.3532 47.6949 93.6162 45.151 93.6162 41.3702H91.6162ZM110.561 53.8204C118.639 53.8204 122.85 51.5699 125.086 47.9069L123.379 46.8647C121.65 49.6958 118.274 51.8204 110.561 51.8204V53.8204ZM123.232 47.3858V52.0001H125.232V47.3858H123.232ZM124.232 53.0001H135.478V51.0001H124.232V53.0001ZM136.478 52.0001V30.296H134.478V52.0001H136.478ZM136.478 30.296C136.478 25.3775 135.37 21.38 132.056 18.6698C128.801 16.0079 123.625 14.7696 115.961 14.7696V16.7696C123.507 16.7696 128.089 18.0094 130.79 20.218C133.432 22.3784 134.478 25.6441 134.478 30.296H136.478ZM115.961 14.7696C109.304 14.7696 104.334 15.6717 100.85 16.5426L101.335 18.4829C104.687 17.6449 109.493 16.7696 115.961 16.7696V14.7696ZM100.842 16.5446C98.82 17.0676 97.0542 17.666 95.5536 18.3448L96.378 20.167C97.7486 19.547 99.4007 18.9833 101.343 18.4809L100.842 16.5446ZM95.0879 19.7348L98.9844 26.8783L100.74 25.9206L96.8437 18.7771L95.0879 19.7348ZM100.194 27.3429C101.408 26.9165 102.766 26.5511 104.343 26.2155L103.927 24.2593C102.291 24.6073 100.846 24.9938 99.5308 25.456L100.194 27.3429ZM104.343 26.2155C107.031 25.6442 110.753 25.0411 115.277 25.0411V23.0411C110.573 23.0411 106.707 23.6684 103.927 24.2592L104.343 26.2155ZM115.277 25.0411C119.189 25.0411 121.145 25.6212 122.126 26.37C123.009 27.0432 123.267 27.9872 123.267 29.4415H125.267C125.267 27.7854 124.977 26.0292 123.339 24.7798C121.8 23.606 119.261 23.0411 115.277 23.0411V25.0411ZM124.34 28.4441C115.02 27.7601 106.942 27.8276 101.164 29.5916C98.2586 30.4785 95.8572 31.8167 94.182 33.776C92.4924 35.752 91.6162 38.2728 91.6162 41.3702H93.6162C93.6162 38.6741 94.3679 36.6361 95.7021 35.0757C97.0507 33.4984 99.0691 32.3222 101.748 31.5045C107.138 29.859 114.885 29.7556 124.193 30.4388L124.34 28.4441ZM104.827 40.3448C104.827 39.4512 105.18 38.8091 105.915 38.2824C106.709 37.7143 107.959 37.2805 109.707 36.9905C113.198 36.4115 118.195 36.4729 124.201 36.6617L124.264 34.6627C118.307 34.4754 113.101 34.4002 109.38 35.0174C107.523 35.3255 105.914 35.8232 104.751 36.6564C103.53 37.5311 102.827 38.7603 102.827 40.3448H104.827ZM123.232 35.6622V38.3624H125.232V35.6622H123.232ZM123.232 38.3624C123.232 39.4872 122.671 40.6473 121.163 41.5733C119.619 42.5211 117.092 43.2071 113.295 43.2071V45.2071C117.291 45.2071 120.232 44.4917 122.209 43.2776C124.222 42.0418 125.232 40.2795 125.232 38.3624H123.232ZM113.295 43.2071C109.667 43.2071 107.483 42.8278 106.237 42.2525C105.634 41.9737 105.299 41.6707 105.109 41.3872C104.923 41.1092 104.827 40.776 104.827 40.3448H102.827C102.827 41.0928 103 41.832 103.447 42.4992C103.889 43.161 104.55 43.6762 105.399 44.0682C107.058 44.8344 109.609 45.2071 113.295 45.2071V43.2071ZM142.313 16.795V15.795H141.313V16.795H142.313ZM142.313 52.0001H141.313V53.0001H142.313V52.0001ZM153.524 52.0001V53.0001H154.524V52.0001H153.524ZM174.716 52.0001H173.716V53.0001H174.716V52.0001ZM185.927 52.0001V53.0001H186.927V52.0001H185.927ZM153.524 21.546H152.524V24.9265L154.363 22.09L153.524 21.546ZM153.524 16.795H154.524V15.795H153.524V16.795ZM141.313 16.795V52.0001H143.313V16.795H141.313ZM142.313 53.0001H153.524V51.0001H142.313V53.0001ZM154.524 52.0001V35.1153H152.524V52.0001H154.524ZM154.524 35.1153C154.524 32.3065 155.111 29.8957 156.527 28.1977C157.914 26.5345 160.242 25.3829 164.12 25.3829V23.3829C159.83 23.3829 156.86 24.675 154.991 26.917C153.151 29.124 152.524 32.0794 152.524 35.1153H154.524ZM164.12 25.3829C167.999 25.3829 170.327 26.5345 171.713 28.1977C173.129 29.8957 173.716 32.3065 173.716 35.1153H175.716C175.716 32.0794 175.089 29.124 173.249 26.917C171.38 24.675 168.411 23.3829 164.12 23.3829V25.3829ZM173.716 35.1153V52.0001H175.716V35.1153H173.716ZM174.716 53.0001H185.927V51.0001H174.716V53.0001ZM186.927 52.0001V35.1153H184.927V52.0001H186.927ZM186.927 35.1153C186.927 29.389 185.589 24.2721 182.26 20.5814C178.914 16.8714 173.71 14.7696 166.342 14.7696V16.7696C173.33 16.7696 177.917 18.7523 180.775 21.9209C183.65 25.1088 184.927 29.6649 184.927 35.1153H186.927ZM166.342 14.7696C159.039 14.7696 154.908 17.573 152.685 21.0019L154.363 22.09C156.174 19.2982 159.631 16.7696 166.342 16.7696V14.7696ZM154.524 21.546V16.795H152.524V21.546H154.524ZM153.524 15.795H142.313V17.795H153.524V15.795ZM227.763 46.3262H228.763V43.2007L226.948 45.7458L227.763 46.3262ZM227.763 52.0001H226.763V53.0001H227.763V52.0001ZM238.974 52.0001V53.0001H239.974V52.0001H238.974ZM238.974 0.183655H239.974V-0.816345H238.974V0.183655ZM227.763 0.183655V-0.816345H226.763V0.183655H227.763ZM227.763 22.4688L226.948 23.0493L228.763 25.5943V22.4688H227.763ZM190.396 34.3975C190.396 40.4904 192.534 45.4397 196.479 48.8514C200.406 52.2472 206.013 54.0255 212.792 54.0255V52.0255C206.344 52.0255 201.252 50.3345 197.788 47.3386C194.342 44.3588 192.396 39.9941 192.396 34.3975H190.396ZM212.792 54.0255C221.178 54.0255 225.926 50.6249 228.577 46.9067L226.948 45.7458C224.677 48.9319 220.539 52.0255 212.792 52.0255V54.0255ZM226.763 46.3262V52.0001H228.763V46.3262H226.763ZM227.763 53.0001H238.974V51.0001H227.763V53.0001ZM239.974 52.0001V0.183655H237.974V52.0001H239.974ZM238.974 -0.816345H227.763V1.18365H238.974V-0.816345ZM226.763 0.183655V22.4688H228.763V0.183655H226.763ZM228.577 21.8883C225.926 18.1702 221.178 14.7696 212.792 14.7696V16.7696C220.539 16.7696 224.677 19.8632 226.948 23.0493L228.577 21.8883ZM212.792 14.7696C206.013 14.7696 200.406 16.5479 196.479 19.9436C192.534 23.3554 190.396 28.3047 190.396 34.3975H192.396C192.396 28.8009 194.342 24.4363 197.788 21.4564C201.252 18.4605 206.344 16.7696 212.792 16.7696V14.7696ZM203.606 34.3975C203.606 31.7216 204.431 29.5215 206.186 27.9742C207.96 26.41 210.832 25.3829 215.185 25.3829V23.3829C210.548 23.3829 207.131 24.4749 204.863 26.4739C202.577 28.4898 201.606 31.2971 201.606 34.3975H203.606ZM215.185 25.3829C219.537 25.3829 222.409 26.41 224.183 27.9742C225.938 29.5215 226.763 31.7216 226.763 34.3975H228.763C228.763 31.2971 227.793 28.4898 225.506 26.4739C223.238 24.4749 219.821 23.3829 215.185 23.3829V25.3829ZM226.763 34.3975C226.763 37.0735 225.938 39.2735 224.183 40.8209C222.409 42.385 219.537 43.4122 215.185 43.4122V45.4122C219.821 45.4122 223.238 44.3202 225.506 42.3211C227.793 40.3052 228.763 37.4979 228.763 34.3975H226.763ZM215.185 43.4122C210.832 43.4122 207.96 42.385 206.186 40.8209C204.431 39.2735 203.606 37.0735 203.606 34.3975H201.606C201.606 37.4979 202.577 40.3052 204.863 42.3211C207.131 44.3202 210.548 45.4122 215.185 45.4122V43.4122ZM276.059 47.3858H277.059V43.8288L275.205 46.8647L276.059 47.3858ZM276.059 52.0001H275.059V53.0001H276.059V52.0001ZM287.304 52.0001V53.0001H288.304V52.0001H287.304ZM252.919 17.5128L252.676 16.5426L252.669 16.5446L252.919 17.5128ZM247.792 19.2559L247.38 18.3448L246.398 18.7889L246.914 19.7348L247.792 19.2559ZM251.688 26.3995L250.811 26.8783L251.218 27.6248L252.02 27.3429L251.688 26.3995ZM255.961 25.2374L255.753 24.2592L255.753 24.2593L255.961 25.2374ZM276.093 29.4415L276.02 30.4388L277.093 30.5176V29.4415H276.093ZM276.059 35.6622H277.059V34.6931L276.09 34.6627L276.059 35.6622ZM243.442 41.3702C243.442 45.9292 245.619 49.1104 249.129 51.0934C252.568 53.0363 257.255 53.8204 262.387 53.8204V51.8204C257.402 51.8204 253.116 51.0493 250.113 49.3521C247.179 47.6949 245.442 45.151 245.442 41.3702H243.442ZM262.387 53.8204C270.465 53.8204 274.676 51.5699 276.912 47.9069L275.205 46.8647C273.477 49.6958 270.1 51.8204 262.387 51.8204V53.8204ZM275.059 47.3858V52.0001H277.059V47.3858H275.059ZM276.059 53.0001H287.304V51.0001H276.059V53.0001ZM288.304 52.0001V30.296H286.304V52.0001H288.304ZM288.304 30.296C288.304 25.3775 287.196 21.38 283.882 18.6698C280.627 16.0079 275.451 14.7696 267.787 14.7696V16.7696C275.333 16.7696 279.915 18.0094 282.616 20.218C285.258 22.3784 286.304 25.6441 286.304 30.296H288.304ZM267.787 14.7696C261.13 14.7696 256.16 15.6717 252.676 16.5426L253.161 18.4829C256.514 17.6449 261.319 16.7696 267.787 16.7696V14.7696ZM252.669 16.5446C250.646 17.0676 248.88 17.666 247.38 18.3448L248.204 20.167C249.575 19.547 251.227 18.9833 253.169 18.4809L252.669 16.5446ZM246.914 19.7348L250.811 26.8783L252.566 25.9206L248.67 18.7771L246.914 19.7348ZM252.02 27.3429C253.234 26.9165 254.592 26.5511 256.169 26.2155L255.753 24.2593C254.117 24.6073 252.673 24.9938 251.357 25.456L252.02 27.3429ZM256.169 26.2155C258.857 25.6442 262.579 25.0411 267.104 25.0411V23.0411C262.4 23.0411 258.533 23.6684 255.753 24.2592L256.169 26.2155ZM267.104 25.0411C271.016 25.0411 272.971 25.6212 273.953 26.37C274.835 27.0432 275.093 27.9872 275.093 29.4415H277.093C277.093 27.7854 276.804 26.0292 275.165 24.7798C273.626 23.606 271.087 23.0411 267.104 23.0411V25.0411ZM276.166 28.4441C266.846 27.7601 258.768 27.8276 252.99 29.5916C250.085 30.4785 247.683 31.8167 246.008 33.776C244.319 35.752 243.442 38.2728 243.442 41.3702H245.442C245.442 38.6741 246.194 36.6361 247.528 35.0757C248.877 33.4984 250.895 32.3222 253.574 31.5045C258.964 29.859 266.711 29.7556 276.02 30.4388L276.166 28.4441ZM256.653 40.3448C256.653 39.4512 257.006 38.8091 257.742 38.2824C258.535 37.7143 259.785 37.2805 261.534 36.9905C265.024 36.4115 270.022 36.4729 276.027 36.6617L276.09 34.6627C270.133 34.4754 264.928 34.4002 261.206 35.0174C259.349 35.3255 257.741 35.8232 256.577 36.6564C255.356 37.5311 254.653 38.7603 254.653 40.3448H256.653ZM275.059 35.6622V38.3624H277.059V35.6622H275.059ZM275.059 38.3624C275.059 39.4872 274.497 40.6473 272.989 41.5733C271.445 42.5211 268.918 43.2071 265.121 43.2071V45.2071C269.117 45.2071 272.058 44.4917 274.035 43.2776C276.048 42.0418 277.059 40.2795 277.059 38.3624H275.059ZM265.121 43.2071C261.493 43.2071 259.31 42.8278 258.064 42.2525C257.46 41.9737 257.125 41.6707 256.935 41.3872C256.749 41.1092 256.653 40.776 256.653 40.3448H254.653C254.653 41.0928 254.827 41.832 255.273 42.4992C255.716 43.161 256.376 43.6762 257.225 44.0682C258.884 44.8344 261.435 45.2071 265.121 45.2071V43.2071ZM329.311 18.128L330.169 18.6403L330.673 17.7955L329.837 17.2777L329.311 18.128ZM326.576 16.9659L326.874 16.0114L326.871 16.0105L326.576 16.9659ZM305.351 21.546H304.351V24.9265L306.19 22.09L305.351 21.546ZM305.351 16.795H306.351V15.795H305.351V16.795ZM294.14 16.795V15.795H293.14V16.795H294.14ZM294.14 52.0001H293.14V53.0001H294.14V52.0001ZM305.351 52.0001V53.0001H306.351V52.0001H305.351ZM322.235 25.2374L322.505 24.2744L322.498 24.2726L322.235 25.2374ZM324.56 26.0919L324.149 27.0038L324.962 27.3695L325.418 26.6042L324.56 26.0919ZM329.837 17.2777C329.017 16.7703 328.004 16.3645 326.874 16.0114L326.278 17.9204C327.335 18.2508 328.168 18.5971 328.784 18.9783L329.837 17.2777ZM326.871 16.0105C324.912 15.4047 322.111 14.7696 318.168 14.7696V16.7696C321.881 16.7696 324.481 17.3649 326.281 17.9213L326.871 16.0105ZM318.168 14.7696C310.865 14.7696 306.735 17.573 304.512 21.0019L306.19 22.09C308 19.2982 311.457 16.7696 318.168 16.7696V14.7696ZM306.351 21.546V16.795H304.351V21.546H306.351ZM305.351 15.795H294.14V17.795H305.351V15.795ZM293.14 16.795V52.0001H295.14V16.795H293.14ZM294.14 53.0001H305.351V51.0001H294.14V53.0001ZM306.351 52.0001V35.1153H304.351V52.0001H306.351ZM306.351 35.1153C306.351 32.3065 306.938 29.8957 308.353 28.1977C309.74 26.5345 312.068 25.3829 315.946 25.3829V23.3829C311.656 23.3829 308.686 24.675 306.817 26.917C304.977 29.124 304.351 32.0794 304.351 35.1153H306.351ZM315.946 25.3829C318.532 25.3829 320.525 25.8074 321.972 26.2021L322.498 24.2726C320.938 23.847 318.761 23.3829 315.946 23.3829V25.3829ZM321.966 26.2003C322.76 26.4229 323.499 26.711 324.149 27.0038L324.97 25.1799C324.253 24.8574 323.419 24.5304 322.505 24.2744L321.966 26.2003ZM325.418 26.6042L330.169 18.6403L328.452 17.6157L323.701 25.5795L325.418 26.6042ZM331.054 25.4083H330.054V26.4083H331.054V25.4083ZM340.077 25.4083H341.077V24.4083H340.077V25.4083ZM364.14 51.9317L363.861 50.9714L363.853 50.9736L363.846 50.9759L364.14 51.9317ZM366.737 50.8038L367.282 51.6422L367.982 51.1873L367.66 50.4174L366.737 50.8038ZM363.559 43.2159L364.481 42.8295L364.088 41.8926L363.158 42.2997L363.559 43.2159ZM361.747 43.8311L361.493 42.864L361.484 42.8664L361.747 43.8311ZM351.288 25.4083V24.4083H350.288V25.4083H351.288ZM365.302 25.4083V26.4083H366.302V25.4083H365.302ZM365.302 16.795H366.302V15.795H365.302V16.795ZM351.288 16.795H350.288V17.795H351.288V16.795ZM351.288 6.57526H352.288V5.57526H351.288V6.57526ZM340.077 6.57526V5.57526H339.077V6.57526H340.077ZM340.077 16.795V17.795H341.077V16.795H340.077ZM331.054 16.795V15.795H330.054V16.795H331.054ZM331.054 26.4083H340.077V24.4083H331.054V26.4083ZM339.077 25.4083V36.6876H341.077V25.4083H339.077ZM339.077 36.6876C339.077 41.9229 339.879 46.3138 342.47 49.3851C345.095 52.4963 349.354 54.0255 355.697 54.0255V52.0255C349.634 52.0255 346.082 50.5639 343.999 48.0953C341.882 45.5868 341.077 41.8086 341.077 36.6876H339.077ZM355.697 54.0255C359.723 54.0255 362.557 53.465 364.434 52.8875L363.846 50.9759C362.168 51.4921 359.533 52.0255 355.697 52.0255V54.0255ZM364.418 52.892C365.547 52.5645 366.497 52.1528 367.282 51.6422L366.192 49.9653C365.611 50.3434 364.852 50.6837 363.861 50.9714L364.418 52.892ZM367.66 50.4174L364.481 42.8295L362.636 43.6023L365.815 51.1902L367.66 50.4174ZM363.158 42.2997C362.669 42.5138 362.104 42.7031 361.493 42.864L362.002 44.7982C362.689 44.6173 363.355 44.3965 363.959 44.132L363.158 42.2997ZM361.484 42.8664C360.44 43.151 358.888 43.4122 357.064 43.4122V45.4122C359.069 45.4122 360.798 45.1265 362.01 44.7959L361.484 42.8664ZM357.064 43.4122C355.066 43.4122 354.02 43.0016 353.389 42.1912C352.694 41.2991 352.288 39.6752 352.288 36.6876H350.288C350.288 39.7156 350.669 41.954 351.811 43.4203C353.017 44.9682 354.859 45.4122 357.064 45.4122V43.4122ZM352.288 36.6876V25.4083H350.288V36.6876H352.288ZM351.288 26.4083H365.302V24.4083H351.288V26.4083ZM366.302 25.4083V16.795H364.302V25.4083H366.302ZM365.302 15.795H351.288V17.795H365.302V15.795ZM352.288 16.795V6.57526H350.288V16.795H352.288ZM351.288 5.57526H340.077V7.57526H351.288V5.57526ZM339.077 6.57526V16.795H341.077V6.57526H339.077ZM340.077 15.795H331.054V17.795H340.077V15.795ZM330.054 16.795V25.4083H332.054V16.795H330.054Z" fill="url(#paint0_linear_238_270)"/>
<defs>
<linearGradient id="paint0_linear_238_270" x1="-35" y1="7.00006" x2="-5.69416" y2="129.435" gradientUnits="userSpaceOnUse">
<stop stop-color="#4C4192"/>
<stop offset="1" stop-color="#80D6B0" stop-opacity="0.4"/>
</linearGradient>
</defs>
</svg>
